<?xml version="1.0" encoding="utf-8"?>
<!-- Generator: Adobe Illustrator 20.1.0, SVG Export Plug-In . SVG Version: 6.00 Build 0)  -->
<svg version="1.1" id="Layer_1" xmlns="http://www.w3.org/2000/svg" xmlns:xlink="http://www.w3.org/1999/xlink" x="0px" y="0px"
	 viewBox="0 0 24 24" style="enable-background:new 0 0 24 24;" xml:space="preserve">
<style type="text/css">
	.st0{fill:#FFFFFF;}
</style>
<path class="st0" d="M5,9c1.7,0,3,1.3,3,3s-1.3,3-3,3s-3-1.3-3-3S3.3,9,5,9z M5,7c-2.8,0-5,2.2-5,5s2.2,5,5,5s5-2.2,5-5S7.8,7,5,7z
	 M20,16c-1.2,0-2.2,0.5-2.9,1.3l-5.5-2.9c-0.2,0.6-0.5,1.2-0.9,1.8l5.5,2.9C16,19.4,16,19.7,16,20c0,2.2,1.8,4,4,4s4-1.8,4-4
	S22.2,16,20,16z M20,22c-1.1,0-2-0.9-2-2s0.9-2,2-2s2,0.9,2,2S21.1,22,20,22z M20,0c-2.2,0-4,1.8-4,4c0,0.3,0,0.6,0.1,0.9l-5.5,2.9
	C11,8.4,11.3,9,11.6,9.6l5.5-2.9C17.8,7.5,18.8,8,20,8c2.2,0,4-1.8,4-4S22.2,0,20,0z M20,6c-1.1,0-2-0.9-2-2s0.9-2,2-2s2,0.9,2,2
	S21.1,6,20,6z"/>
</svg>
